PathFileType	4	(X/Y/Z)	Patient4_TMGait_0pt7_01_right_32.trc.trc
DataRate	CameraRate	NumFrames	NumMarkers	Units	OrigDataRate	OrigDataStartFrame	OrigNumFrames
84.848484848485	84.848484848485	5	33	mm	84.848484848485	18	       141
Frame#	Time	Sacral			L.Shoulder			Chest			R.Shoulder			Neck			R.ASIS			L.ASIS			R.Thigh.Superior			R.Thigh.Lateral			R.Thigh.Inferior			R.Patella			L.Thigh.Superior			L.Thigh.Lateral			L.Thigh.Inferior			L.Patella			L.Shank.Superior			L.Shank.Lateral			L.Shank.Inferior			R.Shank.Superior			R.Shank.Lateral			R.Shank.Inferior			R.Heel			R.Midfoot.Superior			R.Midfoot.Lateral			R.Toe			L.Heel			L.Midfoot.Lateral			L.Midfoot.Superior			L.Toe			L.Elbow			L.Wrist			R.Elbow			R.Wrist			
		X1	Y1	Z1	X2	Y2	Z2	X3	Y3	Z3	X4	Y4	Z4	X5	Y5	Z5	X6	Y6	Z6	X7	Y7	Z7	X8	Y8	Z8	X9	Y9	Z9	X10	Y10	Z10	X11	Y11	Z11	X12	Y12	Z12	X13	Y13	Z13	X14	Y14	Z14	X15	Y15	Z15	X16	Y16	Z16	X17	Y17	Z17	X18	Y18	Z18	X19	Y19	Z19	X20	Y20	Z20	X21	Y21	Z21	X22	Y22	Z22	X23	Y23	Z23	X24	Y24	Z24	X25	Y25	Z25	X26	Y26	Z26	X27	Y27	Z27	X28	Y28	Z28	X29	Y29	Z29	X30	Y30	Z30	X31	Y31	Z31	X32	Y32	Z32	X33	Y33	Z33	

18	36.570357142857	839.760372916625	1015.704195858401	471.408595886368	1090.363835184411	1427.111579681774	306.473749959251	1164.400438653172	1338.570369540705	474.058900355460	1073.876137874065	1425.578331483142	638.864714197231	1089.129207581361	1482.375993596855	460.860214442710	1055.640989930731	943.360295894070	606.931802369871	1055.445594297611	948.098324983685	330.566791444933	1133.959012219146	782.598163729677	579.060901260370	1097.127442657762	659.495691849076	652.398453877633	1183.203836831983	624.636819648954	570.362049340399	1220.904801082595	542.587719480984	588.581283995342	1058.930488805384	726.305946159166	363.658937870225	946.498304492046	634.133573903382	292.417976842700	1002.487332994042	539.098938257214	359.733880754021	985.535543929773	472.138964168333	367.817846820095	949.339946391739	406.054775385515	355.566344269088	842.020422211329	309.457558408012	303.386293234344	873.296589327174	189.401746704314	370.601503618141	1205.822427228043	451.105386855461	601.125034766800	1155.980891993814	338.038013889959	669.143044037827	1222.396071721083	251.198211616757	615.246673563358	1127.910993080820	63.581403695755	593.595504253637	1292.412247889036	138.423686796546	628.327522141731	1215.541536489293	59.131208496334	662.080453942204	1418.437107721589	99.432296006391	646.996624103826	726.122452351676	43.814809396000	408.989314660891	797.281528328288	39.340875529005	326.868795996842	883.380675253048	96.850479154721	351.712584002852	1008.257972557921	39.175663010683	316.143157497593	1059.231840764709	1112.436921411329	132.339668625859	1305.381934718600	1111.717062067266	185.660824390859	907.324844134783	1118.360681697170	741.673716035082	863.450336651850	859.313988461356	746.571809594024	
19	36.582142857143	842.318756358134	1012.844641844077	474.314975330829	1090.127718807235	1425.434476615046	308.521053726678	1165.078264746347	1337.181427081028	475.796417642734	1074.792248845676	1423.705650817999	640.856122089632	1089.224851653315	1480.493487938198	462.767680461486	1058.629276792219	940.503147330879	608.411556693850	1058.070694656138	945.518729856987	331.994126601683	1134.638084385538	777.139900940423	580.301386964036	1096.419210668956	654.757126994700	653.919606085651	1181.147470933121	619.170796878119	570.858302301134	1217.706244152436	538.597873291538	588.727870131929	1058.426262685106	723.485338721147	364.165636292081	944.089565960984	632.932269323712	293.468817353939	999.002402392170	536.931356091377	360.098176213604	981.153978422361	470.350997416948	368.265283417359	944.377116658449	404.758241762066	355.947911683426	835.875510250181	309.360036050115	303.715480576036	865.863037910412	188.867522000101	370.719626955418	1205.577486414526	447.225702051632	601.700193184182	1158.713751000853	332.371370148346	668.897678822306	1228.063818821974	247.730802454267	614.740075758964	1139.168239873427	57.534297324956	591.704516451435	1301.465511248976	136.666676748624	627.399115629683	1226.539135640920	55.409563880010	660.693055968859	1428.581409165468	101.147528456184	646.788236866579	717.727380173528	43.920555236146	408.838749959100	788.964065984232	39.309200229831	326.784769715818	875.078518549950	96.806606442659	351.685173322207	999.942538723060	39.141844292956	316.140709110228	1063.897096514446	1110.705920952068	134.022238844578	1309.297493034482	1118.081558902313	189.064133114194	902.597463775038	1119.964311028412	742.179870178222	854.296258137840	861.862077500862	746.127334150515	
20	36.593928571429	845.079311313451	1009.706532940094	477.409847802717	1089.707080348929	1423.506124090617	310.704290632244	1165.767169211196	1335.660759805889	477.685962466438	1075.761981396339	1421.677489167262	643.019546486282	1089.191538892730	1478.441575541689	464.827616110634	1061.818036873514	937.325954106775	610.010245701982	1060.850159109163	942.871205106192	333.566126324683	1135.821851864863	771.722997259736	581.693402677100	1096.136281588579	649.874669739506	655.312553476577	1179.939458696956	613.847212529151	571.576050892779	1214.992905655811	534.125212912286	589.053939761647	1058.223183069170	720.583505901997	364.688547777803	942.035984493536	631.627967228771	294.603585057062	996.016531041979	534.654549911296	360.436708702166	977.332666902532	468.332971632290	368.654471941615	939.793073897590	403.298819205057	356.292931559506	829.942991933402	309.279033575163	304.025853074245	858.514845387434	188.287733488905	370.741801120148	1205.108263015270	442.834967124699	602.176544051965	1160.032477319910	326.739514137388	668.255479944535	1231.510863767641	243.801760965821	613.939221388224	1146.296204245643	52.637663276620	589.266007179608	1307.027561066550	133.863058368307	626.002874677022	1233.155658669479	51.861692064872	658.868199153161	1434.606222710484	100.306616194706	646.275556038175	709.291605187618	44.068495546722	408.622025614265	780.629237686463	39.230713325082	326.649385669887	866.793058295374	96.748405486728	351.572902415687	991.652889235114	39.119317474580	316.116458360949	1068.013082751767	1108.599418182643	136.124423313069	1312.564553443739	1123.088247312705	192.538080186192	898.575365601363	1121.175366494841	742.960703834537	846.702982918097	863.815904809327	746.215536018442	
21	36.605714285714	847.974737300185	1006.379159284718	480.629653787156	1089.173981137684	1421.353768328757	313.024144925016	1166.488526578828	1334.026593143117	479.747834432564	1076.770353071393	1419.531957072333	645.355343724167	1089.078143580839	1476.265727377210	467.050917874288	1065.143772319067	933.918643965857	611.764820637044	1063.710470275483	940.219425515126	335.347416349547	1137.573242697859	766.524888064082	583.266364024952	1096.289420088331	644.988352864608	656.523708635560	1179.685157778448	608.834416007224	572.531730718147	1212.964994390675	529.358859456443	589.493274390638	1058.365207588461	717.662756498974	365.271491246887	940.436509167547	630.217874869538	295.843055892562	993.677403229225	532.284758827602	360.776502659461	974.240744091739	466.049608163823	368.995982421146	935.710325283857	401.653700044093	356.628731680587	824.331204328155	309.241137418697	304.342939195262	851.321079182142	187.687212453816	370.686034853069	1204.609412529112	438.101219288196	602.494328656932	1160.246277428309	321.244217914978	667.320470218735	1233.016492439229	239.462479107092	612.882697712704	1149.511016411063	48.774874189052	586.570573003256	1309.460924923297	130.076233450502	624.193681861582	1235.758716582072	48.481302504092	656.811093532816	1436.987678533050	96.992719135127	645.384132733729	700.833377079029	44.345137321270	408.347889731924	772.282647385476	39.150365486246	326.470222802568	858.563808768013	96.682382101942	351.369820116343	983.393415675353	39.103000130584	316.065438308122	1071.509632717012	1106.116724920624	138.648552149455	1315.219573086720	1126.705714831972	196.065559666517	895.434604693485	1121.863851045948	744.071308633458	840.720006580109	865.044278261386	746.838688493095	
22	36.617500000000	850.919919114282	1002.978843272629	483.906189265702	1088.610042955096	1419.029524967449	315.475597541122	1167.265759918182	1332.313707746284	481.992570943634	1077.810766719888	1417.325450125824	647.857078970412	1088.951006423029	1474.031441792806	469.442910957263	1068.531269574633	930.402476229928	613.704907243480	1066.575031567681	937.618969747090	337.395240141882	1139.908796847381	761.710292638678	585.039370715182	1096.875636546121	640.271039937746	657.545295123937	1180.409814552965	604.289794843729	573.729512117602	1211.778637107569	524.532517996481	589.992015642576	1058.904167986608	714.802151282461	365.955628944648	939.401499180460	628.699002335118	297.212436808505	992.152941215925	529.845609992337	361.153688430639	972.070014863759	463.477548647948	369.307769192850	932.276939300796	399.811124856379	356.990680600879	819.179251929924	309.287567808644	304.699571724902	844.376950281394	187.111118027074	370.582407718424	1204.260717136689	433.245387464400	602.634632714894	1159.703857292511	316.042486089991	666.232886784370	1232.930001742093	234.859414382872	611.639447030145	1149.235824039277	45.846148481966	583.898629650902	1309.229550261071	125.515124710362	622.068955721785	1234.893795541297	45.338405400546	654.733142333353	1436.307847294652	91.561055798298	644.110466178854	692.387950682140	44.882694204321	408.033517410352	763.938785634639	39.149406764367	326.261115723308	850.446495466459	96.625775979325	351.076974128952	975.164832883275	39.081944712948	315.985853116856	1074.318039721457	1103.276766420073	141.597827300896	1317.295715826217	1128.904722257917	199.626488050863	893.336790524724	1121.919695609995	745.555471090128	836.427615578747	865.450375441071	747.969475819442	
